<svg xmlns="http://www.w3.org/2000/svg" xmlns:xlink="http://www.w3.org/1999/xlink" width="500" zoomAndPan="magnify" viewBox="0 0 375 374.999991" height="500" preserveAspectRatio="xMidYMid meet" version="1.0"><defs><g><g id="id1"/></g></defs><path fill="rgb(50.979614%, 82.348633%, 58.428955%)" d="M 194.246094 67.617188 C 149.925781 67.617188 113.996094 103.542969 113.996094 147.867188 C 113.996094 192.1875 149.925781 228.117188 194.246094 228.117188 C 238.566406 228.117188 274.496094 192.1875 274.496094 147.867188 C 274.496094 103.542969 238.566406 67.617188 194.246094 67.617188 " fill-opacity="1" fill-rule="nonzero"/><g fill="rgb(19.60907%, 41.569519%, 23.139954%)" fill-opacity="1"><g transform="translate(103.825932, 181.513688)"><g><path d="M 101.835938 -94.996094 L 101.539062 -94.996094 L 59.761719 -15.90625 L 18.582031 -94.996094 L 18.136719 -94.996094 L 5.351562 0.148438 L 7.730469 0.148438 L 17.691406 -73.589844 L 54.707031 -2.378906 L 55.304688 -2.378906 L 93.511719 -74.777344 L 102.28125 0.148438 L 112.984375 0.148438 Z M 101.835938 -94.996094 "/></g></g></g><g fill="rgb(19.60907%, 41.569519%, 23.139954%)" fill-opacity="1"><g transform="translate(218.580899, 235.173369)"><g><path d="M 45.324219 -75.667969 L 45.324219 -77.648438 L 5.945312 -77.648438 L 5.945312 0.125 L 14.738281 0.125 L 14.738281 -39.503906 L 41.980469 -39.503906 L 41.980469 -41.488281 L 14.738281 -41.488281 L 14.738281 -75.667969 Z M 45.324219 -75.667969 "/></g></g></g><g fill="rgb(19.60907%, 41.569519%, 23.139954%)" fill-opacity="1"><g transform="translate(115.230466, 271.077784)"><g><path d="M 24.546875 0 L 23.25 -16.171875 L 23.09375 -16.171875 L 17.5 -0.171875 L 13.796875 -0.171875 L 8.203125 -16.171875 L 8.03125 -16.171875 L 6.75 0 L 0.53125 0 L 2.984375 -27.296875 L 9.59375 -27.296875 L 15.640625 -11.546875 L 21.703125 -27.296875 L 28.3125 -27.296875 L 30.765625 0 Z M 24.546875 0 "/></g></g></g><g fill="rgb(19.60907%, 41.569519%, 23.139954%)" fill-opacity="1"><g transform="translate(146.52605, 271.077784)"><g><path d="M 19.15625 -7.671875 L 6.84375 -7.671875 C 6.84375 -6.484375 7.226562 -5.601562 8 -5.03125 C 8.769531 -4.457031 9.609375 -4.171875 10.515625 -4.171875 C 11.460938 -4.171875 12.210938 -4.296875 12.765625 -4.546875 C 13.316406 -4.796875 13.945312 -5.296875 14.65625 -6.046875 L 18.890625 -3.9375 C 17.117188 -0.976562 14.1875 0.5 10.09375 0.5 C 7.53125 0.5 5.332031 -0.375 3.5 -2.125 C 1.675781 -3.882812 0.765625 -6 0.765625 -8.46875 C 0.765625 -10.9375 1.675781 -13.050781 3.5 -14.8125 C 5.332031 -16.582031 7.53125 -17.46875 10.09375 -17.46875 C 12.78125 -17.46875 14.96875 -16.6875 16.65625 -15.125 C 18.34375 -13.570312 19.1875 -11.351562 19.1875 -8.46875 C 19.1875 -8.070312 19.175781 -7.804688 19.15625 -7.671875 Z M 7.015625 -10.921875 L 13.46875 -10.921875 C 13.332031 -11.796875 12.984375 -12.46875 12.421875 -12.9375 C 11.859375 -13.414062 11.132812 -13.65625 10.25 -13.65625 C 9.28125 -13.65625 8.507812 -13.398438 7.9375 -12.890625 C 7.363281 -12.390625 7.054688 -11.734375 7.015625 -10.921875 Z M 7.015625 -10.921875 "/></g></g></g><g fill="rgb(19.60907%, 41.569519%, 23.139954%)" fill-opacity="1"><g transform="translate(166.474497, 271.077784)"><g><path d="M 3.140625 -2.09375 C 1.554688 -3.832031 0.765625 -5.957031 0.765625 -8.46875 C 0.765625 -10.976562 1.554688 -13.101562 3.140625 -14.84375 C 4.734375 -16.59375 6.753906 -17.46875 9.203125 -17.46875 C 11.441406 -17.46875 13.289062 -16.757812 14.75 -15.34375 L 14.75 -28.453125 L 20.609375 -28.453125 L 20.609375 0 L 14.8125 0 L 14.8125 -1.921875 L 14.75 -1.921875 C 13.289062 -0.304688 11.441406 0.5 9.203125 0.5 C 6.753906 0.5 4.734375 -0.363281 3.140625 -2.09375 Z M 8.125 -11.34375 C 7.363281 -10.59375 6.984375 -9.632812 6.984375 -8.46875 C 6.984375 -7.300781 7.34375 -6.347656 8.0625 -5.609375 C 8.789062 -4.867188 9.753906 -4.5 10.953125 -4.5 C 12.097656 -4.5 13.039062 -4.875 13.78125 -5.625 C 14.519531 -6.375 14.890625 -7.320312 14.890625 -8.46875 C 14.890625 -9.632812 14.507812 -10.59375 13.75 -11.34375 C 12.988281 -12.09375 12.054688 -12.46875 10.953125 -12.46875 C 9.828125 -12.46875 8.882812 -12.09375 8.125 -11.34375 Z M 8.125 -11.34375 "/></g></g></g><g fill="rgb(19.60907%, 41.569519%, 23.139954%)" fill-opacity="1"><g transform="translate(189.069504, 271.077784)"><g><path d="M 17.765625 -27.296875 L 17.765625 -21.828125 L 8.203125 -21.828125 L 8.203125 -16.40625 L 17.03125 -16.40625 L 17.03125 -10.953125 L 8.203125 -10.953125 L 8.203125 0 L 1.984375 0 L 1.984375 -27.296875 Z M 17.765625 -27.296875 "/></g></g></g><g fill="rgb(19.60907%, 41.569519%, 23.139954%)" fill-opacity="1"><g transform="translate(207.826999, 271.077784)"><g><path d="M 3.140625 -2.09375 C 1.554688 -3.832031 0.765625 -5.957031 0.765625 -8.46875 C 0.765625 -10.976562 1.554688 -13.101562 3.140625 -14.84375 C 4.734375 -16.59375 6.753906 -17.46875 9.203125 -17.46875 C 11.441406 -17.46875 13.289062 -16.757812 14.75 -15.34375 L 14.75 -16.96875 L 20.609375 -16.96875 L 20.609375 0 L 14.8125 0 L 14.8125 -1.921875 L 14.75 -1.921875 C 13.289062 -0.304688 11.441406 0.5 9.203125 0.5 C 6.753906 0.5 4.734375 -0.363281 3.140625 -2.09375 Z M 8.125 -11.34375 C 7.363281 -10.59375 6.984375 -9.632812 6.984375 -8.46875 C 6.984375 -7.300781 7.34375 -6.347656 8.0625 -5.609375 C 8.789062 -4.867188 9.753906 -4.5 10.953125 -4.5 C 12.097656 -4.5 13.039062 -4.875 13.78125 -5.625 C 14.519531 -6.375 14.890625 -7.320312 14.890625 -8.46875 C 14.890625 -9.632812 14.507812 -10.59375 13.75 -11.34375 C 12.988281 -12.09375 12.054688 -12.46875 10.953125 -12.46875 C 9.828125 -12.46875 8.882812 -12.09375 8.125 -11.34375 Z M 8.125 -11.34375 "/></g></g></g><g fill="rgb(19.60907%, 41.569519%, 23.139954%)" fill-opacity="1"><g transform="translate(230.422006, 271.077784)"><g><path d="M 9.359375 -17.46875 C 10.328125 -17.46875 11.285156 -17.351562 12.234375 -17.125 C 13.179688 -16.90625 13.890625 -16.6875 14.359375 -16.46875 L 15.046875 -16.140625 L 13.125 -12.3125 C 11.800781 -13.007812 10.546875 -13.359375 9.359375 -13.359375 C 8.703125 -13.359375 8.234375 -13.285156 7.953125 -13.140625 C 7.679688 -13.003906 7.546875 -12.738281 7.546875 -12.34375 C 7.546875 -12.25 7.554688 -12.15625 7.578125 -12.0625 C 7.597656 -11.976562 7.640625 -11.894531 7.703125 -11.8125 C 7.773438 -11.738281 7.835938 -11.675781 7.890625 -11.625 C 7.941406 -11.570312 8.035156 -11.507812 8.171875 -11.4375 C 8.304688 -11.375 8.410156 -11.328125 8.484375 -11.296875 C 8.554688 -11.265625 8.679688 -11.210938 8.859375 -11.140625 C 9.035156 -11.078125 9.164062 -11.03125 9.25 -11 C 9.34375 -10.96875 9.492188 -10.914062 9.703125 -10.84375 C 9.910156 -10.78125 10.070312 -10.738281 10.1875 -10.71875 C 10.875 -10.519531 11.46875 -10.296875 11.96875 -10.046875 C 12.476562 -9.804688 13.015625 -9.476562 13.578125 -9.0625 C 14.140625 -8.644531 14.570312 -8.113281 14.875 -7.46875 C 15.1875 -6.832031 15.34375 -6.109375 15.34375 -5.296875 C 15.34375 -1.429688 12.664062 0.5 7.3125 0.5 C 6.09375 0.5 4.9375 0.3125 3.84375 -0.0625 C 2.757812 -0.4375 1.972656 -0.8125 1.484375 -1.1875 L 0.765625 -1.78125 L 3.140625 -5.78125 C 3.316406 -5.632812 3.546875 -5.453125 3.828125 -5.234375 C 4.117188 -5.023438 4.640625 -4.738281 5.390625 -4.375 C 6.140625 -4.019531 6.789062 -3.84375 7.34375 -3.84375 C 8.550781 -3.84375 9.15625 -4.25 9.15625 -5.0625 C 9.15625 -5.4375 9 -5.726562 8.6875 -5.9375 C 8.382812 -6.144531 7.863281 -6.378906 7.125 -6.640625 C 6.382812 -6.910156 5.804688 -7.15625 5.390625 -7.375 C 4.328125 -7.925781 3.488281 -8.546875 2.875 -9.234375 C 2.257812 -9.929688 1.953125 -10.851562 1.953125 -12 C 1.953125 -13.726562 2.617188 -15.070312 3.953125 -16.03125 C 5.285156 -16.988281 7.085938 -17.46875 9.359375 -17.46875 Z M 9.359375 -17.46875 "/></g></g></g><g fill="rgb(19.60907%, 41.569519%, 23.139954%)" fill-opacity="1"><g transform="translate(246.698352, 271.077784)"><g><path d="M 2.984375 -16.96875 L 2.984375 -23.28125 L 8.828125 -23.28125 L 8.828125 -16.96875 L 12.40625 -16.96875 L 12.40625 -12.5 L 8.828125 -12.5 L 8.828125 -7.109375 C 8.828125 -5.546875 9.269531 -4.765625 10.15625 -4.765625 C 10.375 -4.765625 10.601562 -4.804688 10.84375 -4.890625 C 11.09375 -4.984375 11.28125 -5.070312 11.40625 -5.15625 L 11.609375 -5.296875 L 13.0625 -0.5625 C 11.8125 0.144531 10.378906 0.5 8.765625 0.5 C 7.660156 0.5 6.710938 0.304688 5.921875 -0.078125 C 5.128906 -0.460938 4.523438 -0.976562 4.109375 -1.625 C 3.703125 -2.28125 3.410156 -2.96875 3.234375 -3.6875 C 3.066406 -4.40625 2.984375 -5.171875 2.984375 -5.984375 L 2.984375 -12.5 L 0.53125 -12.5 L 0.53125 -16.96875 Z M 2.984375 -16.96875 "/></g></g></g></svg>